<svg width="64" height="64" viewBox="0 0 64 64" fill="none" xmlns="http://www.w3.org/2000/svg">
<circle cx="32" cy="32" r="32" fill="#6B63FB"/>
<path d="M34.3833 38.0004H19.3333C16.3 38.0004 14.3667 34.7504 15.8333 32.0838L19.7167 25.0171L23.35 18.4004C24.8667 15.6504 28.8333 15.6504 30.35 18.4004L34 25.0171L35.75 28.2004L37.8833 32.0838C39.35 34.7504 37.4167 38.0004 34.3833 38.0004Z" stroke="white" stroke-width="2" stroke-linecap="round" stroke-linejoin="round"/>
<path d="M48.6667 38.8333C48.6667 44.8167 43.8167 49.6667 37.8333 49.6667C31.85 49.6667 27 44.8167 27 38.8333C27 38.55 27.0167 38.2833 27.0333 38H34.3833C37.4167 38 39.35 34.75 37.8833 32.0834L35.75 28.2C36.4167 28.0667 37.1167 28 37.8333 28C43.8167 28 48.6667 32.85 48.6667 38.8333Z" stroke="white" stroke-width="2" stroke-linecap="round" stroke-linejoin="round"/>
</svg>
