<svg width="64" height="64" viewBox="0 0 64 64" fill="none" xmlns="http://www.w3.org/2000/svg">
<circle cx="32" cy="32" r="32" fill="#6B63FB"/>
<path d="M35.3333 27.5V32.3333H39.6667C40 32.3333 40.1667 32.6667 40.1667 33L39.5 36.1667C39.5 36.3333 39.1667 36.5 39 36.5H35.3333V48.6667H30.3333V36.6667H27.5C27.1667 36.6667 27 36.5 27 36.1667V33C27 32.6667 27.1667 32.5 27.5 32.5H30.3333V27C30.3333 24.1667 32.5 22 35.3333 22H39.8333C40.1667 22 40.3333 22.1667 40.3333 22.5V26.5C40.3333 26.8333 40.1667 27 39.8333 27H35.8333C35.5 27 35.3333 27.1667 35.3333 27.5Z" stroke="white" stroke-width="2" stroke-miterlimit="10" stroke-linecap="round"/>
<path d="M37 48.6663H27C18.6667 48.6663 15.3334 45.333 15.3334 36.9997V26.9997C15.3334 18.6663 18.6667 15.333 27 15.333H37C45.3334 15.333 48.6667 18.6663 48.6667 26.9997V36.9997C48.6667 45.333 45.3334 48.6663 37 48.6663Z" stroke="white" stroke-width="2" stroke-linecap="round" stroke-linejoin="round"/>
</svg>
