<svg width="64" height="64" viewBox="0 0 64 64" fill="none" xmlns="http://www.w3.org/2000/svg">
<circle cx="32" cy="32" r="32" fill="#6B63FB"/>
<path d="M39.9167 27.2005L36.8333 24.1171C35.6667 22.9505 34.0667 23.0171 33.2833 24.2505L31.5667 26.9671L37.05 32.4505L39.7667 30.7338C40.95 30.0005 41.0167 28.2838 39.9167 27.2005Z" stroke="white" stroke-width="2" stroke-linecap="round" stroke-linejoin="round"/>
<path d="M31.5666 26.9671L27.5833 26.7338C25.35 26.6004 24.5833 27.2838 24.3333 29.4004L23.3333 37.8504C23.1166 39.6338 24.4 40.9004 26.1833 40.7004L34.6333 39.7004C36.75 39.4504 37.5166 38.6838 37.3 36.4504L37.0666 32.4671" stroke="white" stroke-width="2" stroke-linecap="round" stroke-linejoin="round"/>
<path d="M24.4833 39.5335L27.5666 36.4502" stroke="white" stroke-width="2" stroke-linecap="round" stroke-linejoin="round"/>
<path d="M27 48.6663H37C45.3334 48.6663 48.6667 45.333 48.6667 36.9997V26.9997C48.6667 18.6663 45.3334 15.333 37 15.333H27C18.6667 15.333 15.3334 18.6663 15.3334 26.9997V36.9997C15.3334 45.333 18.6667 48.6663 27 48.6663Z" stroke="white" stroke-width="2" stroke-linecap="round" stroke-linejoin="round"/>
</svg>
