<svg width="40" height="40" viewBox="0 0 40 40" fill="none" xmlns="http://www.w3.org/2000/svg">
<circle cx="20" cy="20" r="20" fill="white"/>
<path d="M16.3799 20.0001L18.7899 22.4201L23.6199 17.5801" stroke="#6B63FB" stroke-width="1.5" stroke-linecap="round" stroke-linejoin="round"/>
<path d="M18.7499 10.4503C19.4399 9.86031 20.5699 9.86031 21.2699 10.4503L22.8499 11.8103C23.1499 12.0703 23.7099 12.2803 24.1099 12.2803H25.8099C26.8699 12.2803 27.7399 13.1503 27.7399 14.2103V15.9103C27.7399 16.3003 27.9499 16.8703 28.2099 17.1703L29.5699 18.7503C30.1599 19.4403 30.1599 20.5703 29.5699 21.2703L28.2099 22.8503C27.9499 23.1503 27.7399 23.7103 27.7399 24.1103V25.8103C27.7399 26.8703 26.8699 27.7403 25.8099 27.7403H24.1099C23.7199 27.7403 23.1499 27.9503 22.8499 28.2103L21.2699 29.5703C20.5799 30.1603 19.4499 30.1603 18.7499 29.5703L17.1699 28.2103C16.8699 27.9503 16.3099 27.7403 15.9099 27.7403H14.1799C13.1199 27.7403 12.2499 26.8703 12.2499 25.8103V24.1003C12.2499 23.7103 12.0399 23.1503 11.7899 22.8503L10.4399 21.2603C9.85988 20.5703 9.85988 19.4503 10.4399 18.7603L11.7899 17.1703C12.0399 16.8703 12.2499 16.3103 12.2499 15.9203V14.2003C12.2499 13.1403 13.1199 12.2703 14.1799 12.2703H15.9099C16.2999 12.2703 16.8699 12.0603 17.1699 11.8003L18.7499 10.4503Z" stroke="#6B63FB" stroke-width="1.5" stroke-linecap="round" stroke-linejoin="round"/>
</svg>
