<svg width="412" height="524" viewBox="0 0 412 524" fill="none" xmlns="http://www.w3.org/2000/svg">
<path d="M414.482 395.065C416.806 355.504 396.434 269.986 296.358 244.402C263.837 236.088 242.565 239.8 229.207 250.224C172.926 294.144 280.837 400.759 316.332 338.819V338.819C347.268 284.837 325.323 237.294 305.147 203.212C284.971 169.129 234.698 129.652 134.04 141.901" stroke="white" stroke-opacity="0.8" stroke-width="1.0284" stroke-dasharray="5.14 5.14"/>
<g clip-path="url(#clip0_89_12685)">
<path d="M103.046 172.43C90.8744 165.737 78.7024 159.044 66.5305 152.351C63.0769 150.455 59.6283 148.537 56.1475 146.685C55.6726 146.427 54.9935 146.395 54.9928 147.081C54.992 147.768 55.8268 148.463 56.3683 148.77C68.4579 155.622 80.7128 162.201 92.8847 168.894L103.268 174.604C103.762 174.878 104.478 174.897 104.473 174.186C104.468 173.476 103.605 172.736 103.032 172.421L103.046 172.43Z" fill="white" fill-opacity="0.8"/>
<path d="M57.0456 148.785C70.8281 140.527 84.6913 132.4 98.6327 124.414C102.613 122.13 106.606 119.866 110.599 117.602C111.656 117.004 109.585 114.787 108.728 115.271C94.7379 123.178 80.8328 131.223 67.0019 139.402C63.0536 141.738 59.1068 144.091 55.1705 146.447C54.1227 147.076 56.207 149.284 57.0415 148.778L57.0456 148.785Z" fill="white" fill-opacity="0.8"/>
<path d="M104.261 174.488C104.903 159.268 107.45 144.227 109.702 129.188C110.332 124.971 110.938 120.742 111.477 116.509C111.565 115.832 110.993 115.183 110.471 114.819C110.213 114.635 109.13 114.093 109.042 114.771C107.097 130 104.253 145.116 102.72 160.398C102.294 164.669 101.973 168.948 101.794 173.239C101.755 174.201 104.196 175.919 104.255 174.492L104.261 174.488Z" fill="white" fill-opacity="0.8"/>
<path d="M56.7778 149.184C69.5405 151.523 82.3402 153.657 95.1639 155.597C98.8184 156.15 102.478 156.683 106.14 157.205C106.853 157.307 106.66 156.423 106.462 156.058C106.123 155.436 105.449 154.913 104.747 154.814C91.9018 152.987 79.0851 150.971 66.3014 148.745C62.6604 148.111 59.0179 147.459 55.3779 146.798C54.6554 146.666 54.8698 147.599 55.056 147.944C55.4065 148.586 56.0659 149.055 56.7713 149.188L56.7778 149.184Z" fill="white" fill-opacity="0.8"/>
<path d="M60.2488 151.079C72.6824 149.386 85.0932 147.437 97.4452 145.216C100.949 144.59 104.448 143.939 107.945 143.272C108.617 143.146 108.014 142.11 107.814 141.845C107.429 141.351 106.742 140.809 106.07 140.934C93.7409 143.294 81.3651 145.403 68.9477 147.239C65.4237 147.761 61.9048 148.261 58.3737 148.742C57.6923 148.837 58.3212 149.93 58.5047 150.169C58.9129 150.684 59.5633 151.168 60.2488 151.079Z" fill="white" fill-opacity="0.8"/>
<path d="M107.528 143.926C111.277 144.078 115.003 144.425 118.746 144.698C119.41 144.749 119.266 143.989 119.053 143.615C118.722 143.034 118.1 142.524 117.423 142.436C113.7 141.961 109.926 141.77 106.176 141.618C105.501 141.592 105.639 142.328 105.864 142.722C106.182 143.267 106.853 143.9 107.528 143.926Z" fill="white" fill-opacity="0.8"/>
<path d="M106.597 155.795C111.546 151.92 116.634 148.168 121.439 144.103C122.186 143.47 120.153 141.492 119.317 142.098C114.225 145.799 109.363 149.845 104.411 153.73C103.651 154.326 105.733 156.472 106.597 155.795Z" fill="white" fill-opacity="0.8"/>
<path d="M117.884 140.68C116.188 140.2 114.515 139.653 112.862 139.038C111.21 138.423 109.682 137.686 108.01 137.011C107.51 136.814 107.136 137.144 107.252 137.641C107.399 138.273 107.975 138.812 108.525 139.104C110.145 139.974 111.912 140.644 113.629 141.291C115.347 141.938 117.002 142.47 118.718 142.955C118.927 143.016 119.248 143.053 119.414 142.869C119.581 142.685 119.532 142.372 119.458 142.165C119.232 141.519 118.549 140.866 117.88 140.674L117.884 140.68Z" fill="white" fill-opacity="0.8"/>
<path d="M112.698 140.747C111.472 140.428 110.249 140.099 109.017 139.785C108.816 139.737 108.536 139.693 108.372 139.867C108.208 140.04 108.258 140.325 108.33 140.516C108.455 140.836 108.665 141.131 108.919 141.353C109.173 141.575 109.46 141.805 109.791 141.889C111.018 142.225 112.248 142.55 113.478 142.875C113.683 142.929 113.969 142.969 114.133 142.796C114.297 142.622 114.25 142.326 114.177 142.136C114.052 141.816 113.839 141.514 113.581 141.285C113.322 141.057 113.029 140.831 112.698 140.747Z" fill="white" fill-opacity="0.8"/>
<path d="M115.748 142.955L116.011 143.117C116.303 143.298 115.821 143 116.055 143.145L115.865 141.33C113.633 140.901 111.421 140.388 109.212 139.836C109.011 139.789 108.731 139.745 108.567 139.918C108.403 140.091 108.453 140.377 108.525 140.567C108.754 141.157 109.354 141.78 109.99 141.947C112.185 142.534 114.409 143.022 116.644 143.44C116.826 143.472 117.143 143.548 117.288 143.359C117.409 143.203 117.407 143.024 117.362 142.835C117.211 142.224 116.685 141.736 116.151 141.442C115.944 141.326 115.75 141.202 115.554 141.088C115.186 140.873 114.444 140.825 114.52 141.446C114.611 142.121 115.212 142.626 115.752 142.961L115.748 142.955Z" fill="white" fill-opacity="0.8"/>
<path d="M110.994 139.946C109.862 139.94 108.73 139.934 107.597 139.956C107.377 139.965 107.182 140.03 107.106 140.258C107.03 140.486 107.171 140.832 107.292 141.028C107.486 141.342 107.74 141.637 108.048 141.844C108.298 142.015 108.593 142.185 108.904 142.192C110.041 142.221 111.182 142.213 112.321 142.214C112.545 142.212 112.742 142.135 112.818 141.908C112.894 141.68 112.749 141.328 112.628 141.131C112.43 140.811 112.172 140.51 111.857 140.307C111.607 140.136 111.305 139.952 110.987 139.95L110.994 139.946Z" fill="white" fill-opacity="0.8"/>
<path d="M109.659 141.249C109.872 140.63 110.086 140.011 110.285 139.382C110.313 139.266 110.309 139.142 110.264 139.025C110.237 138.879 110.18 138.743 110.099 138.612C110.002 138.455 109.896 138.313 109.771 138.183C109.644 138.035 109.501 137.907 109.343 137.796L109.04 137.613C108.867 137.522 108.685 137.462 108.488 137.448L108.269 137.475C108.135 137.521 108.047 137.612 108.008 137.754C107.779 138.364 107.566 138.983 107.354 139.592C107.324 139.719 107.331 139.832 107.376 139.949C107.403 140.095 107.464 140.238 107.544 140.369C107.641 140.525 107.751 140.674 107.877 140.805C108.004 140.952 108.146 141.081 108.308 141.197L108.611 141.381C108.785 141.472 108.973 141.528 109.168 141.552L109.397 141.528C109.537 141.477 109.626 141.387 109.665 141.245L109.659 141.249Z" fill="white" fill-opacity="0.8"/>
</g>
<defs>
<clipPath id="clip0_89_12685">
<rect width="63.7609" height="75.0733" fill="white" transform="translate(87.8929 201.179) rotate(-121.668)"/>
</clipPath>
</defs>
</svg>
