<svg width="40" height="40" viewBox="0 0 40 40" fill="none" xmlns="http://www.w3.org/2000/svg">
<circle cx="20" cy="20" r="20" fill="#6B63FB"/>
<path d="M16 30H24C28.02 30 28.74 28.39 28.95 26.43L29.7 18.43C29.97 15.99 29.27 14 25 14H15C10.73 14 10.03 15.99 10.3 18.43L11.05 26.43C11.26 28.39 11.98 30 16 30Z" stroke="white" stroke-width="1.5" stroke-miterlimit="10" stroke-linecap="round" stroke-linejoin="round"/>
<path d="M16 14V13.2C16 11.43 16 10 19.2 10H20.8C24 10 24 11.43 24 13.2V14" stroke="white" stroke-width="1.5" stroke-miterlimit="10" stroke-linecap="round" stroke-linejoin="round"/>
<path d="M22 21V22C22 22.01 22 22.01 22 22.02C22 23.11 21.99 24 20 24C18.02 24 18 23.12 18 22.03V21C18 20 18 20 19 20H21C22 20 22 20 22 21Z" stroke="white" stroke-width="1.5" stroke-miterlimit="10" stroke-linecap="round" stroke-linejoin="round"/>
<path d="M29.65 19C27.34 20.68 24.7 21.68 22 22.02" stroke="white" stroke-width="1.5" stroke-miterlimit="10" stroke-linecap="round" stroke-linejoin="round"/>
<path d="M10.62 19.2695C12.87 20.8095 15.41 21.7395 18 22.0295" stroke="white" stroke-width="1.5" stroke-miterlimit="10" stroke-linecap="round" stroke-linejoin="round"/>
</svg>
