<svg width="40" height="40" viewBox="0 0 40 40" fill="none" xmlns="http://www.w3.org/2000/svg">
<circle cx="20" cy="20" r="20" fill="#6B63FB"/>
<path d="M15.5 23.2504C15.31 23.2504 15.12 23.1804 14.97 23.0304C14.68 22.7404 14.68 22.2604 14.97 21.9704L18.17 18.7704C18.33 18.6104 18.54 18.5304 18.77 18.5504C18.99 18.5704 19.19 18.6904 19.32 18.8804L20.41 20.5204L23.96 16.9704C24.25 16.6804 24.73 16.6804 25.02 16.9704C25.31 17.2604 25.31 17.7404 25.02 18.0304L20.82 22.2304C20.66 22.3904 20.45 22.4704 20.22 22.4504C20 22.4304 19.8 22.3104 19.67 22.1204L18.58 20.4804L16.03 23.0304C15.88 23.1804 15.69 23.2504 15.5 23.2504Z" fill="white"/>
<path d="M24.5 20.25C24.09 20.25 23.75 19.91 23.75 19.5V18.25H22.5C22.09 18.25 21.75 17.91 21.75 17.5C21.75 17.09 22.09 16.75 22.5 16.75H24.5C24.91 16.75 25.25 17.09 25.25 17.5V19.5C25.25 19.91 24.91 20.25 24.5 20.25Z" fill="white"/>
<path d="M23 30.75H17C11.57 30.75 9.25 28.43 9.25 23V17C9.25 11.57 11.57 9.25 17 9.25H23C28.43 9.25 30.75 11.57 30.75 17V23C30.75 28.43 28.43 30.75 23 30.75ZM17 10.75C12.39 10.75 10.75 12.39 10.75 17V23C10.75 27.61 12.39 29.25 17 29.25H23C27.61 29.25 29.25 27.61 29.25 23V17C29.25 12.39 27.61 10.75 23 10.75H17Z" fill="white"/>
</svg>
