<svg width="22" height="22" viewBox="0 0 22 22" fill="none" xmlns="http://www.w3.org/2000/svg">
<path d="M7.94922 13.136C7.94922 14.3185 8.85672 15.2718 9.98422 15.2718H12.2851C13.2659 15.2718 14.0634 14.4377 14.0634 13.411C14.0634 12.2927 13.5776 11.8985 12.8534 11.6418L9.15922 10.3585C8.43505 10.1018 7.94922 9.70768 7.94922 8.58935C7.94922 7.56268 8.74672 6.72852 9.72755 6.72852H12.0284C13.1559 6.72852 14.0634 7.68185 14.0634 8.86435" stroke="#6B63FB" stroke-width="1.5" stroke-linecap="round" stroke-linejoin="round"/>
<path d="M11 5.5V16.5" stroke="#6B63FB" stroke-width="1.5" stroke-linecap="round" stroke-linejoin="round"/>
<path d="M11 20.1663C16.0627 20.1663 20.1667 16.0623 20.1667 10.9997C20.1667 5.93706 16.0627 1.83301 11 1.83301C5.93743 1.83301 1.83337 5.93706 1.83337 10.9997C1.83337 16.0623 5.93743 20.1663 11 20.1663Z" stroke="#6B63FB" stroke-width="1.5" stroke-linecap="round" stroke-linejoin="round"/>
</svg>
