<svg width="28" height="24" viewBox="0 0 28 24" fill="none" xmlns="http://www.w3.org/2000/svg">
<path d="M12.9416 2.73828H10.6647C4.97227 2.73828 2.69531 4.61519 2.69531 9.30746V14.9382C2.69531 19.6305 4.97227 21.5074 10.6647 21.5074H17.4955C23.1879 21.5074 25.4648 19.6305 25.4648 14.9382V13.0613" stroke="#262626" stroke-width="1.5" stroke-linecap="round" stroke-linejoin="round"/>
<path d="M18.6795 3.69592L9.70826 11.0909C9.36672 11.3725 9.02518 11.9262 8.95687 12.3297L8.46733 15.1544C8.28517 16.1774 9.1618 16.8906 10.4027 16.7498L13.8296 16.3463C14.3077 16.29 14.9794 16.0084 15.3323 15.7269L24.3035 8.33188C25.8519 7.05559 26.5805 5.57283 24.3035 3.69592C22.0266 1.81901 20.2278 2.41962 18.6795 3.69592Z" stroke="#262626" stroke-width="1.5" stroke-miterlimit="10" stroke-linecap="round" stroke-linejoin="round"/>
<path d="M17.3926 4.75586C18.1554 6.99876 20.2843 8.75367 23.0167 9.39182" stroke="#262626" stroke-width="1.5" stroke-miterlimit="10" stroke-linecap="round" stroke-linejoin="round"/>
</svg>
