<svg width="28" height="24" viewBox="0 0 28 24" fill="none" xmlns="http://www.w3.org/2000/svg">
<path d="M17.8077 12.1214C17.8077 13.9795 15.9862 15.481 13.732 15.481C11.4778 15.481 9.65625 13.9795 9.65625 12.1214C9.65625 10.2632 11.4778 8.76172 13.732 8.76172C15.9862 8.76172 17.8077 10.2632 17.8077 12.1214Z" stroke="#262626" stroke-width="1.5" stroke-linecap="round" stroke-linejoin="round"/>
<path d="M13.7318 19.883C17.7506 19.883 21.4962 17.931 24.1033 14.5526C25.1279 13.2293 25.1279 11.0052 24.1033 9.68198C21.4962 6.30355 17.7506 4.35156 13.7318 4.35156C9.71297 4.35156 5.96738 6.30355 3.36027 9.68198C2.33564 11.0052 2.33564 13.2293 3.36027 14.5526C5.96738 17.931 9.71297 19.883 13.7318 19.883Z" stroke="#262626" stroke-width="1.5" stroke-linecap="round" stroke-linejoin="round"/>
</svg>
