<svg width="33" height="33" viewBox="0 0 33 33" fill="none" xmlns="http://www.w3.org/2000/svg">
<path fill-rule="evenodd" clip-rule="evenodd" d="M8.76019 16.4052C8.76019 13.1885 8.76019 11.5801 9.52671 10.4217C9.86899 9.90436 10.312 9.46134 10.8293 9.11905C11.9878 8.35254 13.5961 8.35254 16.8128 8.35254C20.0295 8.35254 21.6379 8.35254 22.7963 9.11905C23.3136 9.46134 23.7567 9.90436 24.0989 10.4217C24.8655 11.5801 24.8655 13.1885 24.8655 16.4052C24.8655 19.6219 24.8655 21.2302 24.0989 22.3887C23.7567 22.906 23.3136 23.349 22.7963 23.6913C21.6379 24.4578 20.0295 24.4578 16.8128 24.4578C13.5961 24.4578 11.9878 24.4578 10.8293 23.6913C10.312 23.349 9.86899 22.906 9.52671 22.3887C8.76019 21.2302 8.76019 19.6219 8.76019 16.4052ZM20.9814 16.4062C20.9814 18.7087 19.1149 20.5752 16.8124 20.5752C14.51 20.5752 12.6435 18.7087 12.6435 16.4062C12.6435 14.1038 14.51 12.2373 16.8124 12.2373C19.1149 12.2373 20.9814 14.1038 20.9814 16.4062ZM16.8124 19.1647C18.3359 19.1647 19.5709 17.9297 19.5709 16.4062C19.5709 14.8828 18.3359 13.6478 16.8124 13.6478C15.289 13.6478 14.054 14.8828 14.054 16.4062C14.054 17.9297 15.289 19.1647 16.8124 19.1647ZM21.146 13.007C21.687 13.007 22.1256 12.5684 22.1256 12.0274C22.1256 11.4864 21.687 11.0479 21.146 11.0479C20.605 11.0479 20.1664 11.4864 20.1664 12.0274C20.1664 12.5684 20.605 13.007 21.146 13.007Z" fill="#141414"/>
<circle cx="16.5" cy="16.5" r="16.25" stroke="#141414" stroke-width="0.5"/>
</svg>
