<svg width="64" height="64" viewBox="0 0 64 64" fill="none" xmlns="http://www.w3.org/2000/svg">
<circle cx="32" cy="32" r="32" fill="white"/>
<path d="M48.1 29.3998L46.4666 36.3665C45.0666 42.3832 42.3 44.8165 37.1 44.3165C36.2666 44.2498 35.3666 44.0999 34.4 43.8665L31.6 43.1998C24.65 41.5498 22.5 38.1165 24.1333 31.1499L25.7666 24.1665C26.1 22.7499 26.5 21.5165 27 20.4999C28.95 16.4665 32.2666 15.3832 37.8333 16.6999L40.6166 17.3499C47.6 18.9832 49.7333 22.4332 48.1 29.3998Z" stroke="#6B63FB" stroke-width="2" stroke-linecap="round" stroke-linejoin="round"/>
<path d="M37.1001 44.3167C36.0667 45.0167 34.7667 45.6 33.1834 46.1167L30.5501 46.9833C23.9334 49.1167 20.4501 47.3333 18.3001 40.7167L16.1667 34.1333C14.0334 27.5167 15.8001 24.0167 22.4167 21.8833L25.0501 21.0167C25.7334 20.8 26.3834 20.6167 27.0001 20.5C26.5001 21.5167 26.1001 22.75 25.7667 24.1667L24.1334 31.15C22.5001 38.1167 24.6501 41.55 31.6001 43.2L34.4001 43.8667C35.3667 44.1 36.2667 44.25 37.1001 44.3167Z" stroke="#6B63FB" stroke-width="2" stroke-linecap="round" stroke-linejoin="round"/>
<path d="M33.0667 26.2168L41.15 28.2668" stroke="#6B63FB" stroke-width="2" stroke-linecap="round" stroke-linejoin="round"/>
<path d="M31.4333 32.667L36.2667 33.9003" stroke="#6B63FB" stroke-width="2" stroke-linecap="round" stroke-linejoin="round"/>
</svg>
