<svg width="22" height="22" viewBox="0 0 22 22" fill="none" xmlns="http://www.w3.org/2000/svg">
<path d="M7.85596 13.9979L13.8509 8.00293" stroke="#009217" stroke-width="1.5" stroke-linecap="round" stroke-linejoin="round"/>
<path d="M8.23176 9.50597C8.85446 9.50597 9.35924 9.00119 9.35924 8.37849C9.35924 7.75579 8.85446 7.25098 8.23176 7.25098C7.60906 7.25098 7.10425 7.75579 7.10425 8.37849C7.10425 9.00119 7.60906 9.50597 8.23176 9.50597Z" stroke="#009217" stroke-width="1.5" stroke-linecap="round" stroke-linejoin="round"/>
<path d="M14.2266 14.7491C14.8493 14.7491 15.3541 14.2443 15.3541 13.6216C15.3541 12.9989 14.8493 12.4941 14.2266 12.4941C13.6039 12.4941 13.0991 12.9989 13.0991 13.6216C13.0991 14.2443 13.6039 14.7491 14.2266 14.7491Z" stroke="#009217" stroke-width="1.5" stroke-linecap="round" stroke-linejoin="round"/>
<path d="M10.9999 20.1663C16.0625 20.1663 20.1666 16.0623 20.1666 10.9997C20.1666 5.93706 16.0625 1.83301 10.9999 1.83301C5.93731 1.83301 1.83325 5.93706 1.83325 10.9997C1.83325 16.0623 5.93731 20.1663 10.9999 20.1663Z" stroke="#009217" stroke-width="1.5" stroke-linecap="round" stroke-linejoin="round"/>
</svg>
