<svg width="33" height="33" viewBox="0 0 33 33" fill="none" xmlns="http://www.w3.org/2000/svg">
<path d="M19.5212 10.0829V10.0801H20.2764L20.5523 10.1335C20.7363 10.1681 20.9033 10.2135 21.0533 10.2697C21.2034 10.3259 21.3486 10.3915 21.489 10.4664C21.6294 10.5413 21.7567 10.6176 21.871 10.6953C21.9842 10.7721 22.0859 10.8536 22.1759 10.9398C22.265 11.0269 22.4039 11.0493 22.5927 11.0072C22.7815 10.9651 22.9848 10.9065 23.2026 10.8316C23.4205 10.7567 23.6359 10.6724 23.8489 10.5788C24.0619 10.4851 24.1916 10.4256 24.2381 10.4004C24.2836 10.3741 24.3078 10.3601 24.3107 10.3582L24.3136 10.354L24.3281 10.347L24.3427 10.34L24.3572 10.3329L24.3717 10.3259L24.3746 10.3217L24.379 10.3189L24.3833 10.3161L24.3862 10.3119L24.4007 10.3076L24.4153 10.3048L24.4124 10.3259L24.408 10.347L24.4007 10.368L24.3935 10.3891L24.3862 10.4032L24.379 10.4172L24.3717 10.4383C24.3669 10.4523 24.362 10.4711 24.3572 10.4945C24.3523 10.5179 24.3063 10.6115 24.2192 10.7754C24.1321 10.9393 24.0232 11.1055 23.8925 11.2741C23.7618 11.4427 23.6446 11.57 23.541 11.6562C23.4365 11.7433 23.3672 11.8041 23.3334 11.8388C23.2995 11.8744 23.2583 11.9072 23.2099 11.9371L23.1373 11.9835L23.1228 11.9905L23.1083 11.9975L23.1054 12.0017L23.101 12.0046L23.0966 12.0074L23.0937 12.0116L23.0792 12.0186L23.0647 12.0256L23.0618 12.0298L23.0574 12.0327L23.0531 12.0355L23.0502 12.0397L23.0473 12.0439L23.0429 12.0467L23.0385 12.0495L23.0356 12.0537H23.1083L23.5149 11.9694C23.786 11.9132 24.0449 11.8454 24.2918 11.7658L24.6839 11.6393L24.7275 11.6253L24.7493 11.6183L24.7638 11.6112L24.7783 11.6042L24.7928 11.5972L24.8074 11.5902L24.8364 11.5859L24.8655 11.5831V11.6112L24.8582 11.614L24.8509 11.6183L24.848 11.6225L24.8437 11.6253L24.8393 11.6281L24.8364 11.6323L24.8335 11.6365L24.8291 11.6393L24.8248 11.6421L24.8219 11.6464L24.819 11.6506L24.8146 11.6534L24.8074 11.6674L24.8001 11.6815L24.7957 11.6843C24.7938 11.6871 24.7323 11.7667 24.6113 11.9231C24.4903 12.0804 24.4249 12.16 24.4153 12.1619C24.4056 12.1647 24.392 12.1787 24.3746 12.204C24.3581 12.2302 24.2555 12.3347 24.0667 12.5173C23.8779 12.6999 23.693 12.8624 23.512 13.0047C23.33 13.148 23.238 13.3241 23.2361 13.5329C23.2332 13.7408 23.222 13.9759 23.2026 14.2381C23.1833 14.5003 23.147 14.7836 23.0937 15.0879C23.0405 15.3923 22.9582 15.7365 22.8469 16.1204C22.7355 16.5044 22.6 16.879 22.4402 17.2442C22.2805 17.6094 22.1135 17.9372 21.9392 18.2275C21.7649 18.5178 21.6052 18.7636 21.46 18.965C21.3147 19.1663 21.1671 19.356 21.017 19.5339C20.867 19.7118 20.6772 19.9123 20.4478 20.1351C20.2174 20.3571 20.0915 20.4788 20.0702 20.5004C20.0479 20.521 19.9531 20.5978 19.7855 20.7307C19.619 20.8646 19.4399 20.9986 19.2482 21.1325C19.0575 21.2655 18.8823 21.3764 18.7225 21.4654C18.5628 21.5544 18.3701 21.656 18.1445 21.7702C17.9199 21.8854 17.6769 21.9922 17.4155 22.0905C17.1541 22.1888 16.8782 22.2801 16.5877 22.3644C16.2973 22.4487 16.0165 22.5143 15.7454 22.5611C15.4744 22.6079 15.167 22.6477 14.8233 22.6805L14.3077 22.7297V22.7367H13.3638V22.7297L13.2403 22.7226C13.158 22.718 13.0903 22.7133 13.037 22.7086C12.9838 22.7039 12.7829 22.6781 12.4343 22.6313C12.0858 22.5845 11.8123 22.5377 11.6138 22.4909C11.4154 22.444 11.1201 22.3551 10.728 22.224C10.3359 22.0929 10.0004 21.9603 9.72157 21.8264C9.44372 21.6934 9.26945 21.6092 9.19877 21.5736C9.12906 21.5389 9.05064 21.4958 8.96351 21.4443L8.8328 21.3671L8.82991 21.3629L8.82554 21.3601L8.82119 21.3572L8.81828 21.353L8.80376 21.346L8.78924 21.339L8.78635 21.3348L8.78198 21.332L8.77762 21.3291L8.77472 21.3249L8.77183 21.3207L8.76745 21.3179H8.76019V21.2898L8.77472 21.2926L8.78924 21.2968L8.85459 21.3039C8.89816 21.3085 9.01676 21.3156 9.21039 21.3249C9.40403 21.3343 9.60975 21.3343 9.82758 21.3249C10.0454 21.3156 10.2681 21.2945 10.4956 21.2617C10.7231 21.2289 10.9918 21.1728 11.3016 21.0932C11.6114 21.0135 11.8961 20.919 12.1555 20.8094C12.414 20.6989 12.598 20.6165 12.7074 20.5622C12.8158 20.5088 12.9814 20.4095 13.204 20.2644L13.538 20.0466L13.5409 20.0424L13.5453 20.0396L13.5497 20.0368L13.5526 20.0326L13.5555 20.0284L13.5598 20.0256L13.5642 20.0227L13.5671 20.0185L13.5816 20.0143L13.5961 20.0115L13.599 19.9975L13.6034 19.9834L13.6078 19.9806L13.6107 19.9764L13.4945 19.9694C13.417 19.9647 13.342 19.96 13.2694 19.9553C13.1968 19.9506 13.083 19.9296 12.9281 19.8921C12.7732 19.8546 12.6062 19.7985 12.4271 19.7235C12.248 19.6486 12.0737 19.5597 11.9043 19.4566C11.7349 19.3536 11.6124 19.2679 11.5369 19.1996C11.4623 19.1321 11.3655 19.0366 11.2464 18.913C11.1283 18.7885 11.0257 18.6606 10.9385 18.5295C10.8514 18.3984 10.7682 18.2472 10.6888 18.0758L10.5682 17.8201L10.561 17.7991L10.5537 17.778L10.5493 17.7639L10.5464 17.7499L10.5682 17.7527L10.59 17.7569L10.7498 17.778C10.8563 17.792 11.0233 17.7967 11.2508 17.792C11.4783 17.7874 11.6356 17.778 11.7227 17.7639C11.8099 17.7499 11.8631 17.7405 11.8825 17.7358L11.9115 17.7288L11.9478 17.7218L11.9841 17.7148L11.9871 17.7106L11.9914 17.7078L11.9958 17.7049L11.9987 17.7007L11.9696 17.6937L11.9406 17.6867L11.9115 17.6797L11.8825 17.6726L11.8534 17.6656C11.8341 17.6609 11.8002 17.6516 11.7518 17.6375C11.7034 17.6235 11.5727 17.572 11.3597 17.483C11.1467 17.394 10.9773 17.3074 10.8514 17.2231C10.7252 17.1386 10.6049 17.0462 10.4913 16.9464C10.378 16.8453 10.2536 16.7151 10.118 16.5559C9.98249 16.3967 9.86148 16.2117 9.75497 16.001C9.64848 15.7903 9.56861 15.589 9.51535 15.397C9.46231 15.2061 9.42732 15.011 9.41081 14.814L9.38465 14.519L9.39918 14.5218L9.4137 14.526L9.42822 14.5331L9.44274 14.5401L9.45726 14.5471L9.47179 14.5541L9.69688 14.6525C9.84696 14.718 10.0333 14.7742 10.256 14.821C10.4787 14.8679 10.6118 14.8936 10.6554 14.8983L10.7207 14.9053H10.8514L10.8485 14.9011L10.8441 14.8983L10.8398 14.8955L10.8369 14.8913L10.834 14.8871L10.8296 14.8843L10.8253 14.8814L10.8224 14.8772L10.8078 14.8702L10.7933 14.8632L10.7904 14.859L10.7861 14.8562L10.7817 14.8533L10.7788 14.8491L10.7643 14.8421L10.7498 14.8351L10.7469 14.8309C10.744 14.829 10.7023 14.799 10.622 14.741C10.5426 14.682 10.4593 14.6057 10.3722 14.512C10.285 14.4183 10.1979 14.32 10.1108 14.217C10.0235 14.1138 9.94572 14.0033 9.87841 13.8869C9.81065 13.7698 9.739 13.6209 9.66348 13.4402C9.58894 13.2604 9.5323 13.0792 9.49357 12.8966C9.45485 12.7139 9.43307 12.5337 9.42822 12.3557C9.42338 12.1778 9.42822 12.0256 9.44274 11.8992C9.45726 11.7728 9.48631 11.63 9.52988 11.4708C9.57344 11.3116 9.63638 11.143 9.71867 10.9651L9.84211 10.6982L9.84937 10.6771L9.85663 10.656L9.861 10.6532L9.86389 10.649L9.86679 10.6448L9.87115 10.642L9.87552 10.6448L9.87841 10.649L9.88132 10.6532L9.88567 10.656L9.89004 10.6588L9.89293 10.663L9.89584 10.6673L9.9002 10.6701L9.90746 10.6841L9.91472 10.6982L9.91909 10.701L9.92198 10.7052L10.118 10.9159C10.2487 11.0564 10.4036 11.2132 10.5827 11.3865C10.7619 11.5597 10.8611 11.6496 10.8805 11.6562C10.8998 11.6637 10.924 11.6852 10.9531 11.7208C10.9821 11.7555 11.0789 11.8383 11.2435 11.9694C11.4081 12.1005 11.6235 12.2527 11.8898 12.426C12.156 12.5992 12.4513 12.7701 12.7756 12.9387C13.1 13.1073 13.4485 13.2594 13.8212 13.3952C14.194 13.531 14.4554 13.62 14.6054 13.6621C14.7555 13.7043 15.0121 13.7581 15.3751 13.8237C15.7382 13.8892 16.0117 13.9314 16.1956 13.9501C16.3796 13.9688 16.5054 13.9796 16.5732 13.9824L16.6749 13.9852L16.672 13.9642L16.6676 13.9431L16.6386 13.7675C16.6192 13.6504 16.6095 13.4865 16.6095 13.2758C16.6095 13.0651 16.6265 12.8708 16.6603 12.6929C16.6942 12.5149 16.7451 12.3347 16.8128 12.1521C16.8806 11.9694 16.9469 11.8229 17.0118 11.7124C17.0776 11.6028 17.1638 11.4778 17.2703 11.3373C17.3768 11.1968 17.5147 11.0517 17.6842 10.9018C17.8536 10.752 18.0472 10.6186 18.2651 10.5015C18.4829 10.3844 18.6838 10.2955 18.8677 10.2346C19.0517 10.1737 19.2066 10.1339 19.3324 10.1152C19.4583 10.0965 19.5212 10.0857 19.5212 10.0829Z" fill="#141414"/>
<circle cx="16.5" cy="16.5" r="16.25" stroke="#141414" stroke-width="0.5"/>
</svg>
